<svg width="100" height="32" viewBox="0 0 100 32" fill="none" xmlns="http://www.w3.org/2000/svg">
<g clip-path="url(#clip0_1_1555)">
<path d="M31.9995 0H-0.000488281V32H31.9995V0Z"/>
<path d="M25.0695 15.6959L24.3548 18.3626H10.4028L6.60547 4.19458H9.36813L12.4481 15.6959H25.0695Z" fill="#AD7E5C"/>
<path d="M23.9255 19.9626L23.2108 22.6293H7.32014L6.60547 19.9626H23.9255Z" fill="#518581"/>
<path d="M22.781 24.2292L22.0663 26.8959H11.117L10.4023 24.2292H22.781Z" fill="#A6D8D1"/>
</g>
<path d="M41.1431 9.30748H43.6299V20.7361H49.4631V22.9303H41.1431V9.30748Z" fill="#151411"/>
<path d="M53.8876 23.1498C52.8393 23.1498 52.0042 22.8938 51.3825 22.3818C50.773 21.8698 50.4682 21.1749 50.4682 20.2972C50.4682 19.4561 50.7547 18.7612 51.3276 18.2126C51.9006 17.6641 52.76 17.2983 53.9059 17.1155L56.8682 16.6401V16.3109C56.8682 15.8721 56.6975 15.5124 56.3562 15.2321C56.0271 14.9517 55.5882 14.8115 55.0396 14.8115C54.5276 14.8115 54.0705 14.9517 53.6682 15.2321C53.2781 15.5002 52.9916 15.8599 52.8088 16.3109L50.8522 15.3601C51.1448 14.5799 51.6812 13.9521 52.4614 13.4766C53.2415 13.0012 54.1314 12.7635 55.1311 12.7635C55.9356 12.7635 56.6488 12.9159 57.2705 13.2206C57.9044 13.5132 58.392 13.9338 58.7334 14.4823C59.0869 15.0187 59.2636 15.6282 59.2636 16.3109V22.9303H56.9962V21.8698C56.216 22.7231 55.1798 23.1498 53.8876 23.1498ZM52.9551 20.2058C52.9551 20.5471 53.0831 20.8214 53.3391 21.0286C53.5951 21.2237 53.9242 21.3212 54.3265 21.3212C55.0701 21.3212 55.6796 21.0896 56.1551 20.6263C56.6305 20.1509 56.8682 19.5658 56.8682 18.8709V18.4686L54.3631 18.8892C53.8876 18.9867 53.5341 19.1452 53.3025 19.3646C53.0709 19.5719 52.9551 19.8522 52.9551 20.2058Z" fill="#151411"/>
<path d="M61.4776 9.08806H63.8731V22.9303H61.4776V9.08806Z" fill="#151411"/>
<path d="M69.1019 23.1498C68.0535 23.1498 67.2185 22.8938 66.5968 22.3818C65.9873 21.8698 65.6825 21.1749 65.6825 20.2972C65.6825 19.4561 65.969 18.7612 66.5419 18.2126C67.1149 17.6641 67.9743 17.2983 69.1202 17.1155L72.0825 16.6401V16.3109C72.0825 15.8721 71.9118 15.5124 71.5705 15.2321C71.2414 14.9517 70.8025 14.8115 70.2539 14.8115C69.7419 14.8115 69.2848 14.9517 68.8825 15.2321C68.4924 15.5002 68.2059 15.8599 68.0231 16.3109L66.0665 15.3601C66.3591 14.5799 66.8954 13.9521 67.6756 13.4766C68.4558 13.0012 69.3457 12.7635 70.3454 12.7635C71.1499 12.7635 71.8631 12.9159 72.4848 13.2206C73.1187 13.5132 73.6063 13.9338 73.9476 14.4823C74.3012 15.0187 74.4779 15.6282 74.4779 16.3109V22.9303H72.2105V21.8698C71.4303 22.7231 70.3941 23.1498 69.1019 23.1498ZM68.1694 20.2058C68.1694 20.5471 68.2974 20.8214 68.5534 21.0286C68.8094 21.2237 69.1385 21.3212 69.5408 21.3212C70.2844 21.3212 70.8939 21.0896 71.3694 20.6263C71.8448 20.1509 72.0825 19.5658 72.0825 18.8709V18.4686L69.5774 18.8892C69.1019 18.9867 68.7484 19.1452 68.5168 19.3646C68.2852 19.5719 68.1694 19.8522 68.1694 20.2058Z" fill="#151411"/>
<path d="M80.4222 23.1315C79.4226 23.1315 78.5388 22.8938 77.7708 22.4183C77.015 21.9429 76.4786 21.2907 76.1616 20.4618L77.9354 19.5475C78.2035 20.0839 78.5571 20.5044 78.9959 20.8092C79.447 21.1018 79.9407 21.2481 80.4771 21.2481C80.9403 21.2481 81.2999 21.1566 81.5559 20.9738C81.8241 20.7787 81.9582 20.5166 81.9582 20.1875C81.9582 19.9071 81.8485 19.6755 81.6291 19.4926C81.4096 19.2976 81.1232 19.1696 80.7696 19.1086L79.1422 18.8343C78.3011 18.6149 77.6489 18.2431 77.1856 17.7189C76.7346 17.1825 76.5091 16.5547 76.5091 15.8355C76.5091 15.2382 76.6675 14.7079 76.9845 14.2446C77.3014 13.7692 77.7403 13.4035 78.3011 13.1475C78.874 12.8915 79.5201 12.7635 80.2394 12.7635C81.1536 12.7635 81.9582 12.9829 82.6531 13.4218C83.3479 13.8484 83.8538 14.4458 84.1708 15.2138L82.3971 16.1281C82.202 15.7014 81.9034 15.3601 81.5011 15.1041C81.0988 14.8481 80.6538 14.7201 80.1662 14.7201C79.7639 14.7201 79.4409 14.8115 79.1971 14.9943C78.9654 15.1772 78.8496 15.4149 78.8496 15.7075C78.8496 16.2439 79.2519 16.6035 80.0565 16.7863L81.6474 17.0789C82.4885 17.3105 83.1407 17.6884 83.6039 18.2126C84.0672 18.7368 84.2988 19.3585 84.2988 20.0778C84.2988 20.6751 84.1342 21.2054 83.8051 21.6686C83.4881 22.1319 83.0371 22.4915 82.4519 22.7475C81.8668 23.0035 81.1902 23.1315 80.4222 23.1315Z" fill="#151411"/>
<path d="M86.0848 12.9829H88.4802V22.9303H86.0848V12.9829ZM85.9019 10.2401C85.9019 9.8012 86.0238 9.45987 86.2676 9.21606C86.5114 8.97225 86.8467 8.85034 87.2733 8.85034C87.7122 8.85034 88.0535 8.97225 88.2974 9.21606C88.5412 9.45987 88.6631 9.8012 88.6631 10.2401C88.6631 10.6667 88.5412 11.002 88.2974 11.2458C88.0657 11.4896 87.7244 11.6115 87.2733 11.6115C86.8467 11.6115 86.5114 11.4896 86.2676 11.2458C86.0238 11.002 85.9019 10.6667 85.9019 10.2401Z" fill="#151411"/>
<path d="M93.7091 23.1498C92.6607 23.1498 91.8256 22.8938 91.2039 22.3818C90.5944 21.8698 90.2896 21.1749 90.2896 20.2972C90.2896 19.4561 90.5761 18.7612 91.1491 18.2126C91.722 17.6641 92.5814 17.2983 93.7274 17.1155L96.6896 16.6401V16.3109C96.6896 15.8721 96.519 15.5124 96.1776 15.2321C95.8485 14.9517 95.4096 14.8115 94.8611 14.8115C94.3491 14.8115 93.8919 14.9517 93.4896 15.2321C93.0995 15.5002 92.8131 15.8599 92.6302 16.3109L90.6736 15.3601C90.9662 14.5799 91.5026 13.9521 92.2828 13.4766C93.063 13.0012 93.9529 12.7635 94.9525 12.7635C95.7571 12.7635 96.4702 12.9159 97.0919 13.2206C97.7258 13.5132 98.2135 13.9338 98.5548 14.4823C98.9083 15.0187 99.0851 15.6282 99.0851 16.3109V22.9303H96.8176V21.8698C96.0374 22.7231 95.0013 23.1498 93.7091 23.1498ZM92.7765 20.2058C92.7765 20.5471 92.9045 20.8214 93.1605 21.0286C93.4165 21.2237 93.7456 21.3212 94.1479 21.3212C94.8915 21.3212 95.5011 21.0896 95.9765 20.6263C96.4519 20.1509 96.6896 19.5658 96.6896 18.8709V18.4686L94.1845 18.8892C93.7091 18.9867 93.3555 19.1452 93.1239 19.3646C92.8923 19.5719 92.7765 19.8522 92.7765 20.2058Z" fill="#151411"/>
<defs>
<clipPath id="clip0_1_1555">
<rect width="32" height="32" fill="white"/>
</clipPath>
</defs>
</svg>
