<svg width="20" height="20" viewBox="0 0 20 20" fill="none" xmlns="http://www.w3.org/2000/svg">
<path d="M4.49992 1.75H15.4999C16.4166 1.75 17.1666 2.5 17.1666 3.41667V5.25C17.1666 5.91667 16.7499 6.75 16.3333 7.16667L12.7499 10.3333C12.2499 10.75 11.9166 11.5833 11.9166 12.25V15.8333C11.9166 16.3333 11.5833 17 11.1666 17.25L9.99992 18C8.91659 18.6667 7.41658 17.9167 7.41658 16.5833V12.1667C7.41658 11.5833 7.08325 10.8333 6.74992 10.4167L3.58325 7.08333C3.16659 6.66667 2.83325 5.91667 2.83325 5.41667V3.5C2.83325 2.5 3.58325 1.75 4.49992 1.75Z" stroke="#151411" stroke-width="2" stroke-miterlimit="10" stroke-linecap="round" stroke-linejoin="round"/>
<path d="M9.10833 1.75L5 8.33333" stroke="#151411" stroke-width="2" stroke-miterlimit="10" stroke-linecap="round" stroke-linejoin="round"/>
</svg>
